<?xml version="1.0" encoding="UTF-8" standalone="no"?>
<!-- Created with Inkscape (http://www.inkscape.org/) -->

<svg
   xmlns:dc="http://purl.org/dc/elements/1.1/"
   xmlns:cc="http://creativecommons.org/ns#"
   xmlns:rdf="http://www.w3.org/1999/02/22-rdf-syntax-ns#"
   xmlns:svg="http://www.w3.org/2000/svg"
   xmlns="http://www.w3.org/2000/svg"
   xmlns:sodipodi="http://sodipodi.sourceforge.net/DTD/sodipodi-0.dtd"
   xmlns:inkscape="http://www.inkscape.org/namespaces/inkscape"
   width="70mm"
   height="70mm"
   viewBox="0 0 248.03149 248.03149"
   id="svg4526"
   version="1.1"
   inkscape:version="0.91 r13725"
   sodipodi:docname="user_add.svg">
  <defs
     id="defs4528" />
  <sodipodi:namedview
     id="base"
     pagecolor="#ffffff"
     bordercolor="#666666"
     borderopacity="1.0"
     inkscape:pageopacity="0.0"
     inkscape:pageshadow="2"
     inkscape:zoom="0.35"
     inkscape:cx="-105"
     inkscape:cy="520"
     inkscape:document-units="px"
     inkscape:current-layer="layer1"
     showgrid="false"
     inkscape:window-width="1536"
     inkscape:window-height="801"
     inkscape:window-x="-8"
     inkscape:window-y="-8"
     inkscape:window-maximized="1" />
  <metadata
     id="metadata4531">
    <rdf:RDF>
      <cc:Work
         rdf:about="">
        <dc:format>image/svg+xml</dc:format>
        <dc:type
           rdf:resource="http://purl.org/dc/dcmitype/StillImage" />
        <dc:title></dc:title>
      </cc:Work>
    </rdf:RDF>
  </metadata>
  <g
     inkscape:label="Laag 1"
     inkscape:groupmode="layer"
     id="layer1"
     transform="translate(0,-804.33071)">
    <path
       style="opacity:1;fill:#030904;fill-opacity:1;fill-rule:nonzero;stroke:#000000;stroke-width:0.50507629;stroke-opacity:1"
       d="m 70.709148,1034.1457 c -2.2224,-0.2268 -4.7225,-0.6822 -5.5559,-1.012 -0.8334,-0.3299 -9.3384,-2.857 -18.9001,-5.6158 -9.5617,-2.7588 -17.4523,-5.0834 -17.5347,-5.1657 -0.2391,-0.2392 2.2788,-42.51161 2.8639,-48.08138 2.2676,-21.58406 6.0483,-32.16101 14.8649,-41.58634 7.5909,-8.11487 14.9224,-11.77177 27.5448,-13.73911 5.5107,-0.85889 39.443302,-1.23111 47.620602,-0.52237 13.00009,1.12673 21.30559,3.10399 29.12309,6.93322 3.9457,1.93271 5.526,3.0883 9.1422,6.68524 9.4197,9.36932 13.7657,22.358 15.8544,47.38281 1.1656,13.96555 2.4884,42.59713 1.9903,43.07933 -0.9176,0.8884 -17.7367,5.5971 -23.3654,6.5414 -20.4406,3.4293 -70.257492,6.467 -83.648092,5.1007 z"
       id="path4293-6"
       inkscape:connector-curvature="0" />
    <ellipse
       style="opacity:1;fill:#000700;fill-opacity:1;fill-rule:nonzero;stroke:#000000;stroke-opacity:1"
       id="path4295-90"
       cx="101.24765"
       cy="874.5321"
       rx="40.658642"
       ry="38.327599" />
    <ellipse
       style="opacity:1;fill:#00d100;fill-opacity:1;fill-rule:nonzero;stroke:#ffffff;stroke-width:7.51900005;stroke-miterlimit:4;stroke-dasharray:none;stroke-opacity:1"
       id="path4344-8"
       cx="189.21915"
       cy="949.83435"
       rx="52.857143"
       ry="50.714287" />
    <text
       xml:space="preserve"
       style="font-style:normal;font-variant:normal;font-weight:normal;font-stretch:normal;font-size:115.22999573px;line-height:125%;font-family:'8514fix';-inkscape-font-specification:'8514fix, Normal';text-align:start;letter-spacing:0px;word-spacing:0px;writing-mode:lr-tb;text-anchor:start;fill:#ffffff;fill-opacity:1;stroke:#ffffff;stroke-width:1px;stroke-linecap:butt;stroke-linejoin:miter;stroke-opacity:1"
       x="138.16463"
       y="1005.028"
       id="text4346-1"
       sodipodi:linespacing="125%"
       transform="scale(1.0205047,0.9799073)"><tspan
         sodipodi:role="line"
         id="tspan4348-0"
         x="138.16463"
         y="1005.028">+</tspan></text>
  </g>
</svg>
